<svg width="32" height="32" viewBox="0 0 32 32" fill="none" xmlns="http://www.w3.org/2000/svg">
<g clip-path="url(#clip0_4684_60261)">
<path d="M9.02936 21.4984L5.49222 13.3099L1.95508 11.8984V23.9784L4.77793 25.0984L4.78936 17.5556L8.32079 26.5042L11.8579 27.8984V15.8299L9.02936 14.7099V21.4984Z" fill="#040405"/>
<path d="M31.76 6.01714H31.7543L16.3429 0L0 6.38286L15.9257 12.6C15.9257 12.6 15.9429 12.6057 15.96 12.6114V32L32 25.7371V6.11429L31.76 6.02286V6.01714ZM27.72 24.0857L25.1314 25.12L24.5886 21.0457L24.0457 25.56L21.4629 26.5943L19.56 16.12L21.7143 15.2571L22.9257 21.3429L23.7371 14.4457L25.4114 13.7771L26.2171 20L27.4286 12.9714L29.6286 12.0914L27.7257 24.0857H27.72Z" fill="#040405"/>
</g>
<defs>
<clipPath id="clip0_4684_60261">
<rect width="32" height="32" fill="white"/>
</clipPath>
</defs>
</svg>
